<svg width="400" height="100" viewBox="0 0 400 100" fill="none" xmlns="http://www.w3.org/2000/svg">
<rect width="400" height="100" rx="10" fill="#EA5160"/>
<path d="M81.291 59.682V33.082H88.4074C89.605 33.082 90.6989 33.2432 91.6892 33.5657C92.7025 33.8881 93.5662 34.3602 94.2801 34.982C95.0171 35.6038 95.5813 36.3754 95.9728 37.2966C96.3874 38.2178 96.5947 39.2772 96.5947 40.4748C96.5947 40.9814 96.5025 41.4881 96.3183 41.9948C96.1571 42.5014 95.9383 42.9851 95.6619 43.4457C95.3856 43.9063 95.0631 44.3208 94.6947 44.6893C94.3262 45.0578 93.9462 45.3457 93.5547 45.5529C94.2456 45.7602 94.9019 46.0711 95.5237 46.4857C96.1456 46.9002 96.6983 47.3954 97.1819 47.9711C97.6656 48.5238 98.0456 49.1457 98.3219 49.8366C98.6213 50.5045 98.771 51.2069 98.771 51.9438C98.771 53.2335 98.5522 54.362 98.1147 55.3293C97.6771 56.2735 97.0668 57.0796 96.2837 57.7475C95.5007 58.3923 94.568 58.876 93.4856 59.1984C92.4262 59.5208 91.2631 59.682 89.9965 59.682H81.291ZM85.2292 56.2275H89.9965C91.4013 56.2275 92.5528 55.882 93.451 55.1911C94.3492 54.4772 94.7983 53.3948 94.7983 51.9438C94.7983 51.3451 94.6716 50.7923 94.4183 50.2857C94.165 49.779 93.808 49.3414 93.3474 48.9729C92.9098 48.6045 92.3916 48.3166 91.7928 48.1093C91.194 47.902 90.5607 47.7984 89.8928 47.7984H85.2292V56.2275ZM85.2292 44.3438H87.5783C88.2922 44.3438 88.9601 44.2632 89.5819 44.102C90.2037 43.9408 90.7334 43.699 91.171 43.3766C91.6316 43.0542 91.9886 42.6511 92.2419 42.1675C92.5183 41.6839 92.6565 41.1196 92.6565 40.4748C92.6565 39.3463 92.3225 38.4135 91.6547 37.6766C90.9868 36.9166 89.9274 36.5366 88.4765 36.5366H85.2292V44.3438Z" fill="white"/>
<path d="M101.833 42.4093H105.495V53.6366C105.495 54.0511 105.564 54.4542 105.703 54.8457C105.864 55.2372 106.071 55.5942 106.324 55.9166C106.578 56.239 106.877 56.5038 107.223 56.7111C107.591 56.8954 107.983 56.9875 108.397 56.9875C109.111 56.9875 109.721 56.8263 110.228 56.5038C110.758 56.1584 111.184 55.7208 111.506 55.1911C111.852 54.6614 112.105 54.0857 112.266 53.4639C112.427 52.819 112.508 52.1857 112.508 51.5638V42.4093H116.17V59.682H112.508V57.5402C112.324 57.8396 112.07 58.1505 111.748 58.4729C111.449 58.7723 111.092 59.0602 110.677 59.3366C110.263 59.5899 109.79 59.7972 109.261 59.9584C108.754 60.1426 108.201 60.2348 107.603 60.2348C106.704 60.2348 105.898 60.0505 105.184 59.682C104.47 59.3366 103.86 58.8645 103.353 58.2657C102.87 57.6669 102.49 56.9645 102.213 56.1584C101.96 55.3523 101.833 54.5117 101.833 53.6366V42.4093Z" fill="white"/>
<path d="M123.301 68.3184H119.57L125.063 56.5729L118.776 42.4093H122.714L126.997 52.6348L131.696 42.4093H135.53L123.301 68.3184Z" fill="white"/>
<path d="M164.11 60.5111L158.168 49.4911L152.261 60.5111L145.041 42.4093H148.703L152.848 52.6693L158.168 42.4093L163.523 52.7384L167.599 42.4093H171.295L164.11 60.5111Z" fill="white"/>
<path d="M173.621 59.682V42.4093H177.283V59.682H173.621ZM177.524 35.5002C177.524 36.099 177.329 36.5942 176.937 36.9857C176.546 37.3772 176.039 37.5729 175.417 37.5729C174.818 37.5729 174.323 37.3772 173.932 36.9857C173.563 36.5942 173.379 36.099 173.379 35.5002C173.379 34.8784 173.563 34.3832 173.932 34.0148C174.323 33.6232 174.818 33.4275 175.417 33.4275C176.039 33.4275 176.546 33.6232 176.937 34.0148C177.329 34.3832 177.524 34.8784 177.524 35.5002Z" fill="white"/>
<path d="M190.822 45.2075H186.642V52.8075C186.642 54.0742 186.688 55.0875 186.78 55.8475C186.895 56.5845 187.264 56.9529 187.886 56.9529C188.139 56.9529 188.473 56.8954 188.887 56.7802C189.302 56.6651 189.855 56.3772 190.546 55.9166L191.927 58.2657C190.983 58.8645 190.177 59.3366 189.509 59.682C188.864 60.0275 188.243 60.2002 187.644 60.2002C186.561 60.2002 185.709 60.016 185.087 59.6475C184.489 59.279 184.028 58.7723 183.706 58.1275C183.383 57.4596 183.176 56.6766 183.084 55.7784C183.015 54.8572 182.98 53.8669 182.98 52.8075V45.2075H180.044V42.4093H182.98V36.502H186.642V42.4093H190.822V45.2075Z" fill="white"/>
<path d="M209.034 59.682H205.372V48.4548C205.372 48.0402 205.291 47.6372 205.13 47.2457C204.992 46.8542 204.796 46.4972 204.543 46.1748C204.289 45.8523 203.978 45.599 203.61 45.4148C203.265 45.2075 202.885 45.1038 202.47 45.1038C201.756 45.1038 201.134 45.2766 200.605 45.622C200.098 45.9445 199.672 46.3705 199.326 46.9002C199.004 47.4299 198.762 48.0172 198.601 48.662C198.44 49.2838 198.359 49.9057 198.359 50.5275V59.682H194.697V33.082H198.359V44.5511C198.543 44.2517 198.785 43.9523 199.085 43.6529C199.407 43.3305 199.775 43.0426 200.19 42.7893C200.605 42.5129 201.065 42.2942 201.572 42.1329C202.102 41.9487 202.666 41.8566 203.265 41.8566C204.163 41.8566 204.969 42.0408 205.683 42.4093C206.397 42.7548 206.995 43.2384 207.479 43.8602C207.986 44.459 208.366 45.1614 208.619 45.9675C208.895 46.7505 209.034 47.5796 209.034 48.4548V59.682Z" fill="white"/>
<path fill-rule="evenodd" clip-rule="evenodd" d="M233.843 47.2113L225.455 55.5667V30.5H233.843V47.2113ZM242.232 38.8554V30.5H250.62L242.232 38.8554ZM241.023 40.0592L252.219 56.2272C253.133 57.547 254.581 59.1025 255.97 60.1833H247.92C246.097 60.1833 244.404 59.5055 243.229 57.7986L235.09 45.9687L241.023 40.0592ZM266.269 48.1265V59.9412H260.962V30.5H270.583C276.196 30.5 280.663 33.4441 280.663 39.2559C280.663 44.6853 276.043 48.1265 270.851 48.1265H266.269ZM266.269 35.2794V43.3471H270.736C273.103 43.3471 275.318 41.55 275.318 39.2559C275.318 36.5412 272.951 35.2794 270.393 35.2794H266.269ZM289.897 40.2118C294.02 40.2118 297.761 43.0412 297.761 47.3618V59.9412H292.875V58.4882L292.829 58.5276C291.982 59.2607 290.534 60.5147 287.797 60.5147C284.208 60.5147 281.535 58.0294 281.535 54.2059C281.535 49.5029 286.27 48.4706 289.629 48.4706C290.622 48.4706 291.996 48.5088 292.875 48.6235V47.3618C292.875 45.6794 291.08 44.6088 289.897 44.6088C288.522 44.6088 286.957 44.8382 285.277 46.2912L282.375 43.3088C285.086 40.7088 287.224 40.2118 289.897 40.2118ZM286.46 54.2059C286.46 55.1618 287.644 56.0412 288.675 56.0412C291.156 56.0412 292.875 54.5118 292.875 53.4029V52.2559C292.073 52.1794 291.004 52.1412 290.278 52.1412C288.369 52.1412 286.46 52.5235 286.46 54.2059ZM313.142 40.8235H318.182L304.705 69.5H299.741L306.003 56.2324L299.245 40.8235H304.323L308.561 50.9176L313.142 40.8235Z" fill="white"/>
</svg>
